<svg width="34" height="32" viewBox="0 0 34 32" fill="none" xmlns="http://www.w3.org/2000/svg">
<path d="M9.61053 7.41053L14.3263 1.30526C14.6632 0.85614 15.0632 0.526316 15.5263 0.315789C15.9895 0.105263 16.4737 0 16.9789 0C17.4842 0 17.9684 0.105263 18.4316 0.315789C18.8947 0.526316 19.2947 0.85614 19.6316 1.30526L24.3474 7.41053L31.5053 9.81053C32.2351 10.0351 32.8105 10.4491 33.2316 11.0526C33.6526 11.6561 33.8632 12.3228 33.8632 13.0526C33.8632 13.3895 33.814 13.7263 33.7158 14.0632C33.6175 14.4 33.4561 14.7228 33.2316 15.0316L28.6 21.6L28.7684 28.5053C28.7965 29.4877 28.4737 30.3158 27.8 30.9895C27.1263 31.6632 26.3404 32 25.4421 32C25.386 32 25.0772 31.9579 24.5158 31.8737L16.9789 29.7684L9.4421 31.8737C9.30175 31.9298 9.14737 31.9649 8.97895 31.9789C8.81052 31.993 8.65614 32 8.51579 32C7.61754 32 6.83158 31.6632 6.15789 30.9895C5.48421 30.3158 5.1614 29.4877 5.18947 28.5053L5.35789 21.5579L0.76842 15.0316C0.543858 14.7228 0.382455 14.4 0.284209 14.0632C0.185964 13.7263 0.136841 13.3895 0.136841 13.0526C0.136841 12.3509 0.34035 11.6982 0.747367 11.0947C1.15438 10.4912 1.72281 10.0632 2.45263 9.81053L9.61053 7.41053Z" fill="#F1AA1E"/>
</svg>
