<svg width="22" height="22" viewBox="0 0 22 22" fill="none" xmlns="http://www.w3.org/2000/svg">
<path d="M6.65927 19.3837V9.92222H8.34302C8.47569 9.92222 8.60827 9.93572 8.74077 9.96272C8.87344 9.98972 9.0061 10.0239 9.13877 10.0652L15.8485 12.5565C16.1655 12.6718 16.4248 12.8666 16.6263 13.141C16.8276 13.4155 16.9283 13.7132 16.9283 14.0342C16.9283 14.3524 16.8194 14.6108 16.6018 14.8095C16.3839 15.0083 16.1287 15.1077 15.836 15.1077H13.1513C13.0121 15.1077 12.8898 15.0986 12.7843 15.0802C12.6789 15.0619 12.567 15.0281 12.4485 14.9787L10.8065 14.3657L10.4458 15.4545L12.3348 16.1115C12.4399 16.152 12.5607 16.1814 12.697 16.1997C12.8335 16.2181 12.9646 16.2272 13.0903 16.2272H19.7968C20.3739 16.2272 20.8755 16.4428 21.3015 16.874C21.7274 17.3051 21.9403 17.822 21.9403 18.4245L13.774 21.3947L6.65927 19.3837ZM0.569519 21.287V9.92222H4.65927V21.287H0.569519ZM15.8625 11.8027L11.611 7.69297C11.0864 7.18497 10.6409 6.6228 10.2745 6.00647C9.90819 5.39014 9.72502 4.71972 9.72502 3.99522C9.72502 3.04655 10.0609 2.24447 10.7325 1.58897C11.404 0.933303 12.214 0.605469 13.1625 0.605469C13.6879 0.605469 14.1829 0.711969 14.6475 0.92497C15.1122 1.13797 15.5172 1.42822 15.8625 1.79572C16.2079 1.42822 16.6129 1.13797 17.0775 0.92497C17.5422 0.711969 18.0372 0.605469 18.5625 0.605469C19.511 0.605469 20.3211 0.933303 20.9928 1.58897C21.6643 2.24447 22 3.04655 22 3.99522C22 4.71972 21.82 5.39014 21.46 6.00647C21.1002 6.6228 20.6579 7.18497 20.1333 7.69297L15.8625 11.8027Z" fill="#ECF1F9"/>
</svg>
