<svg width="21" height="20" viewBox="0 0 21 20" fill="none" xmlns="http://www.w3.org/2000/svg">
<path d="M6.59998 4.9L9.39998 1.275C9.59998 1.00833 9.83748 0.8125 10.1125 0.6875C10.3875 0.5625 10.675 0.5 10.975 0.5C11.275 0.5 11.5625 0.5625 11.8375 0.6875C12.1125 0.8125 12.35 1.00833 12.55 1.275L15.35 4.9L19.6 6.325C20.0333 6.45833 20.375 6.70417 20.625 7.0625C20.875 7.42083 21 7.81667 21 8.25C21 8.45 20.9708 8.65 20.9125 8.85C20.8541 9.05 20.7583 9.24167 20.625 9.425L17.875 13.325L17.975 17.425C17.9916 18.0083 17.8 18.5 17.4 18.9C17 19.3 16.5333 19.5 16 19.5C15.9666 19.5 15.7833 19.475 15.45 19.425L10.975 18.175L6.49998 19.425C6.41664 19.4583 6.32498 19.4792 6.22498 19.4875C6.12498 19.4958 6.03331 19.5 5.94998 19.5C5.41664 19.5 4.94998 19.3 4.54998 18.9C4.14998 18.5 3.95831 18.0083 3.97498 17.425L4.07498 13.3L1.34998 9.425C1.21664 9.24167 1.12081 9.05 1.06248 8.85C1.00414 8.65 0.974976 8.45 0.974976 8.25C0.974976 7.83333 1.09581 7.44583 1.33748 7.0875C1.57914 6.72917 1.91664 6.475 2.34998 6.325L6.59998 4.9Z" fill="#ECF1F9"/>
</svg>
